# AST/ASF file generated using VICON BodyLanguage
# -----------------------------------------------
:version 1.10
:name VICON
:units
  mass 1.0
  length 0.45
  angle deg
:documentation
   .ast/.asf automatically generated from VICON data using
   VICON BodyBuilder and BodyLanguage model FoxedUp or BRILLIANT.MOD
:root
   order TX TY TZ RX RY RZ
   axis XYZ
   position 0 0 0  
   orientation 0 0 0 
:bonedata
  begin
     id 1 
     name lhipjoint
     direction 0.560651 -0.75055 0.34978 
     length 2.44936 
     axis 0 0 0  XYZ
  end
  begin
     id 2 
     name lfemur
     direction 0.34202 -0.939693 0  
     length 7.42139  
     axis 0 0 20  XYZ
    dof rx ry rz
    limits (-160.0 20.0)
           (-70.0 70.0)
           (-60.0 70.0)
  end
  begin
     id 3 
     name ltibia
     direction 0.34202 -0.939693 0   
     length 7.75674   
     axis 0 0 20   XYZ
    dof rx
    limits (-10.0 170.0)
  end
  begin
     id 4 
     name lfoot
     direction 0.0925879 -0.254383 0.962661   
     length 2.38688   
     axis -90 7.62852e-016 20   XYZ
    dof rx rz
    limits (-45.0 90.0)
           (-70.0 20.0)
  end
  begin
     id 5 
     name ltoes
     direction 1.53567e-011 -4.21973e-011 1   
     length 1.19228   
     axis -90 7.62852e-016 20   XYZ
    dof rx
    limits (-90.0 20.0)
  end
  begin
     id 6 
     name rhipjoint
     direction -0.540087 -0.762838 0.355506   
     length 2.4099  
     axis 0 0 0  XYZ 
  end
  begin
     id 7 
     name rfemur
     direction -0.34202 -0.939693 0   
     length 7.70794   
     axis 0 0 -20   XYZ
    dof rx ry rz
    limits (-160.0 20.0)
           (-70.0 70.0)
           (-70.0 60.0)
  end
  begin
     id 8 
     name rtibia
     direction -0.34202 -0.939693 0   
     length 7.66106   
     axis 0 0 -20   XYZ
    dof rx
    limits (-10.0 170.0)
 end
 begin
     id 9 
     name rfoot
     direction -0.0830975 -0.228308 0.970036   
     length 2.4989  
     axis -90 -7.62852e-016 -20   XYZ
    dof rx rz
    limits (-45.0 90.0)
           (-20.0 70.0)
  end
  begin
     id 10 
     name rtoes
     direction -1.53517e-011 -4.21842e-011 1   
     length 1.2498   
     axis -90 -7.62852e-016 -20   XYZ
    dof rx
    limits (-90.0 20.0)
  end
  begin
     id 11 
     name lowerback
     direction 0.0266356 0.99402 -0.105896   
     length 2.1545   
     axis 0 0 0   XYZ
    dof rx ry rz
    limits (-20.0 45.0)
           (-30.0 30.0)
           (-30.0 30.0)
  end
  begin
     id 12 
     name upperback
     direction 0.0130547 0.999192 0.0380027   
     length 2.1434   
     axis 0 0 0   XYZ
    dof rx ry rz
    limits (-20.0 45.0)
           (-30.0 30.0)
           (-30.0 30.0)
  end
  begin
     id 13 
     name thorax
     direction 0.000590299 0.996288 0.0860764   
     length 2.19049   
     axis 0 0 0   XYZ
    dof rx ry rz
    limits (-20.0 45.0)
           (-30.0 30.0)
           (-30.0 30.0)
  end
  begin
     id 14 
     name lowerneck
     direction -0.0432125 0.978219 0.203028   
     length 1.62441   
     axis 0 0 0   XYZ
    dof rx ry rz
    limits (-20.0 45.0)
           (-30.0 30.0)
           (-30.0 30.0)
  end
  begin
     id 15 
     name upperneck
     direction -0.0192309 0.991699 -0.127138   
     length 1.66666   
     axis 0 0 0   XYZ
    dof rx ry rz
    limits (-20.0 45.0)
           (-30.0 30.0)
           (-30.0 30.0)
  end
  begin
     id 16
     name head
     direction -0.00434499 0.997882 -0.0649107  
     length 1.67142  
     axis 0 0 0   XYZ
    dof rx ry rz
    limits (-20.0 45.0)
           (-30.0 30.0)
           (-30.0 30.0)
  end
  begin
     id 17 
     name lclavicle
     direction 0.970351 0.240904 -0.0196058  
     length 4.04862  
     axis 0 0 0   XYZ
    dof ry rz
    limits (-20.0 10.0)
           (0.0 20.0)
  end
  begin
     id 18 
     name lhumerus
     direction 1 -4.4896e-011 -1.40911e-018   
     length 5.58345   
     axis 180 -30 -90   XYZ
    dof rx ry rz
    limits (-60.0 90.0)
           (-90.0 90.0)
           (-90.0 90.0)
  end
  begin
     id 19
     name lradius
     direction 1 -4.48968e-011 5.88912e-028   
     length 3.71087   
     axis 180 -30 -90   XYZ
    dof rx
    limits (-10.0 170.0)
  end
  begin
     id 20
     name lwrist
     direction 1 -4.48955e-011 -8.83775e-028   
     length 1.85544   
     axis 5.52448e-016 90 90   XYZ
    dof ry
    limits (-180.0 0.0)
 end
  begin
     id 21 
     name lhand
     direction 1 -4.49035e-011 -1.76755e-027   
     length 0.562322   
     axis 1.12785e-015 90 90   XYZ
    dof rx rz
    limits (-90.0 90.0)
           (-45.0 45.0)
  end
  begin
     id 22 
     name lfingers
     direction 1 -4.48824e-011 -3.5351e-027   
     length 0.453359   
     axis 2.2557e-015 90 90   XYZ
    dof rx
    limits (0.0 90.0)
  end
  begin
     id 23
     name lthumb
     direction 0.707107 -6.34888e-011 0.707107   
     length 0.650935   
     axis -90 45 2.85299e-015   XYZ
    dof rx rz
    limits (-45.0 45.0)
           (-45.0 45.0)
  end
  begin
     id 24 
     name rclavicle
     direction -0.96165 0.268562 -0.0557131   
     length 4.05446  
     axis 0 0 0   XYZ 
    dof ry rz
    limits (-10.0 20.0)
           (-20.0 0.0)
  end
  begin
     id 25 
     name rhumerus
     direction -1 -4.48957e-011 -3.36329e-027  
     length 5.20357   
     axis 180 30 90   XYZ
    dof rx ry rz
    limits (-90.0 60.0)
           (-90.0 90.0)
           (-90.0 90.0)
  end
  begin
     id 26 
     name rradius
     direction -1 -4.48974e-011 4.51441e-027   
     length 3.64937   
     axis 180 30 90   XYZ
    dof rx
    limits (-10.0 170.0)
  end
  begin
     id 27 
     name rwrist
     direction -1 -4.4896e-011 -8.83775e-028   
     length 1.82468   
     axis 5.52448e-016 -90 -90   XYZ
    dof ry
    limits (-180.0 0.0)
  end
  begin
     id 28
     name rhand
     direction -1 -4.48996e-011 -1.76755e-027   
     length 0.617996   
     axis 1.12785e-015 -90 -90   XYZ
    dof rx rz
    limits (-90.0 90.0)
           (-45.0 45.0)
  end
  begin
     id 29
     name rfingers
     direction -1 -4.48957e-011 -3.5351e-027   
     length 0.498244   
     axis 2.2557e-015 -90 -90   XYZ
    dof rx
    limits (0.0 90.0)
  end
  begin
     id 30
     name rthumb
     direction -0.707107 -6.34931e-011 0.707107   
     length 0.715382   
     axis -90 -45 -2.85299e-015   XYZ
    dof rx rz
    limits (-45.0 45.0)
           (-45.0 45.0)
  end
:hierarchy
  begin
    root lhipjoint rhipjoint lowerback
    lhipjoint lfemur
    lfemur ltibia
    ltibia lfoot
    lfoot ltoes
    rhipjoint rfemur
    rfemur rtibia
    rtibia rfoot
    rfoot rtoes
    lowerback upperback
    upperback thorax
    thorax lowerneck lclavicle rclavicle
    lowerneck upperneck
    upperneck head
    lclavicle lhumerus
    lhumerus lradius
    lradius lwrist
    lwrist lhand lthumb
    lhand lfingers
    rclavicle rhumerus
    rhumerus rradius
    rradius rwrist
    rwrist rhand rthumb
    rhand rfingers
  end

#!OML:ASF H:\ManfredETheater\Project 1\Capture day 2\Session 1\Male1.ASF
:FULLY-SPECIFIED
:DEGREES
158
root -9.34938 5.71613 -16.3161 93.141 -31.2545 -92.02
lowerback 46.6681 -3.40241 11.1251
upperback 9.86894 -0.497667 11.9463
thorax -8.71624 -2.15119 8.26137
lowerneck -14.0759 -11.2617 -9.71483
upperneck 12.1037 -16.8005 18.1663
head 8.5593 -7.28338 5.40043
rclavicle 3.18055e-014 1.08139e-013
rhumerus 29.7906 -16.1734 -28.8054
rradius 66.7474
rwrist -10.2772
rhand -33.2389 -14.79
rfingers 7.12502
rthumb -6.44482 -44.672
lclavicle 3.18055e-014 1.08139e-013
lhumerus -24.4889 7.00598 72.9751
lradius 76.7631
lwrist -55.1447
lhand -42.354 1.90162
lfingers 7.12502
lthumb -15.2362 31.3205
rfemur -88.5723 -26.2195 29.562
rtibia 97.1443
rfoot 2.31192 7.94268
rtoes -35.6822
lfemur -87.3657 52.9518 -34.2836
ltibia 145.509
lfoot -0.991708 -26.9317
ltoes 4.50182
159
root -9.44226 5.88087 -16.602 91.8052 -32.7984 -91.0141
lowerback 47.4883 -3.62287 10.8498
upperback 9.75841 -0.729936 11.7965
thorax -8.97934 -2.24708 8.38835
lowerneck -14.109 -11.3033 -9.97294
upperneck 12.0213 -16.866 18.5272
head 8.61091 -7.30101 5.5494
rclavicle -7.31528e-014 -6.99722e-014
rhumerus 29.5033 -15.026 -29.1975
rradius 67.9332
rwrist -9.52727
rhand -33.1263 -14.6593
rfingers 7.12502
rthumb -6.33618 -44.5445
lclavicle -7.31528e-014 -6.99722e-014
lhumerus -24.6943 7.32706 71.7907
lradius 75.2876
lwrist -54.8818
lhand -43.8067 0.765747
lfingers 7.12502
lthumb -16.6351 30.0729
rfemur -88.8703 -26.2978 30.3008
rtibia 98.0268
rfoot 1.82494 8.55095
rtoes -35.8292
lfemur -86.7983 57.786 -33.1644
ltibia 146.095
lfoot -0.418505 -28.7025
ltoes 4.56354
160
root -9.53518 6.04926 -16.8906 90.3217 -34.48 -89.933
lowerback 48.3474 -3.83924 10.4526
upperback 9.6371 -1.00951 11.5801
thorax -9.25479 -2.35367 8.51998
lowerneck -14.1039 -11.3507 -10.1831
upperneck 11.9171 -16.9558 18.9095
head 8.65128 -7.33136 5.69565
rclavicle 1.81292e-013 -1.08139e-013
rhumerus 29.0242 -13.859 -29.6512
rradius 69.1787
rwrist -8.68679
rhand -33.0336 -14.4298
rfingers 7.12502
rthumb -6.24664 -44.3177
lclavicle 1.81292e-013 -1.08139e-013
lhumerus -24.6949 7.56049 70.5912
lradius 73.5189
lwrist -54.3684
lhand -45.1981 -0.459826
lfingers 7.12502
lthumb -17.9743 28.7296
rfemur -89.1021 -26.4747 30.9431
rtibia 98.9103
rfoot 1.20363 9.3334
rtoes -36.0499
lfemur -85.7552 62.5675 -31.6291
ltibia 146.633
lfoot 0.045817 -30.5061
ltoes 3.79667
161
root -9.62931 6.21822 -17.1822 88.7694 -36.3266 -88.7861
lowerback 49.1365 -4.00753 9.9006
upperback 9.51356 -1.31458 11.3181
thorax -9.51971 -2.45674 8.67559
lowerneck -14.0671 -11.4191 -10.3562
upperneck 11.8043 -17.0801 19.2751
head 8.68441 -7.38031 5.8258
rclavicle 6.99722e-014 -1.90833e-014
rhumerus 28.3465 -12.6924 -30.0936
rradius 70.4613
rwrist -7.86253
rhand -32.9508 -14.1907
rfingers 7.12502
rthumb -6.16671 -44.0809
lclavicle 6.99722e-014 -1.90833e-014
lhumerus -24.464 7.66874 69.4522
lradius 71.4339
lwrist -53.4783
lhand -46.492 -1.84199
lfingers 7.12502
lthumb -19.2188 27.2284
rfemur -89.3861 -26.7214 31.5147
rtibia 99.7945
rfoot 0.479457 10.2334
rtoes -36.2973
lfemur -83.9487 66.4213 -29.4349
ltibia 147.13
lfoot 0.506311 -32.0406
ltoes 2.35253
162
root -9.72606 6.38326 -17.4772 87.2494 -38.3282 -87.566
lowerback 49.6809 -4.12482 9.23085
upperback 9.40531 -1.64896 11.0087
thorax -9.7257 -2.55295 8.82256
lowerneck -14 -11.5146 -10.4998
upperneck 11.6933 -17.2445 19.612
head 8.7142 -7.45064 5.93565
rclavicle 2.22639e-014 9.54166e-015
rhumerus 27.4736 -11.5501 -30.4954
rradius 71.761
rwrist -7.13854
rhand -32.8722 -13.9561
rfingers 7.12502
rthumb -6.09082 -43.8486
lclavicle 2.22639e-014 9.54166e-015
lhumerus -23.9461 7.6646 68.415
lradius 68.9892
lwrist -52.2531
lhand -47.6626 -3.30608
lfingers 7.12502
lthumb -20.3442 25.6483
rfemur -89.8764 -27.0012 32.0948
rtibia 100.675
rfoot -0.277329 11.1966
rtoes -36.3262
lfemur -81.6047 69.4968 -26.841
ltibia 147.605
lfoot 0.868433 -33.3266
ltoes 0.459947
163
root -9.82639 6.5413 -17.7751 85.8439 -40.4558 -86.2837
lowerback 49.8625 -4.17893 8.46992
upperback 9.32709 -1.99664 10.6672
thorax -9.84211 -2.63527 8.95004
lowerneck -13.9029 -11.6435 -10.6324
upperneck 11.5886 -17.4514 19.9115
head 8.74345 -7.54401 6.02463
rclavicle 1.145e-013 -5.08889e-014
rhumerus 26.4449 -10.4514 -30.842
rradius 73.015
rwrist -6.49445
rhand -32.8196 -13.6756
rfingers 7.12502
rthumb -6.04009 -43.5695
lclavicle 1.145e-013 -5.08889e-014
lhumerus -23.1237 7.558 67.5155
lradius 66.1707
lwrist -50.7869
lhand -48.6511 -4.83497
lfingers 7.12502
lthumb -21.2939 24.0152
rfemur -90.6635 -27.26 32.7465
rtibia 101.56
rfoot -1.10963 12.0918
rtoes -36.0926
lfemur -79.0127 71.8034 -24.1327
ltibia 148.069
lfoot 1.17062 -34.3696
ltoes -1.58712
